<?xml version="1.0" standalone="no"?>
<svg viewBox="0 0 200 200" xmlns="http://www.w3.org/2000/svg">
  <path fill="#FE805D" d="M40.9,-69.5C55.2,-62.6,70.7,-56.1,79.6,-44.6C88.5,-33.1,90.9,-16.6,87.7,-1.8C84.6,12.9,75.8,25.8,68.6,40.2C61.4,54.6,55.6,70.5,44.4,79C33.2,87.6,16.6,88.8,2.1,85.1C-12.3,81.4,-24.6,72.7,-35.5,64C-46.4,55.3,-55.9,46.5,-63.6,35.8C-71.4,25.2,-77.3,12.6,-77.2,0.1C-77.1,-12.4,-70.8,-24.8,-64.9,-38.6C-58.9,-52.4,-53.3,-67.4,-42.5,-76.5C-31.8,-85.5,-15.9,-88.4,-1.3,-86.2C13.3,-83.9,26.6,-76.4,40.9,-69.5Z" transform="translate(100 100)" />
</svg>
